<svg height="512" viewBox="0 0 128 128" width="512" xmlns="http://www.w3.org/2000/svg"><g><path d="m42.167 108.125h-9.792v13.375h6z" fill="#ff3e63"/><path d="m85.833 108.125h9.792v13.375h-6z" fill="#ff3e63"/><rect fill="#fd637b" height="109" rx="6" width="79.62" x="24.19" y="6.5"/><path d="m97.808 98.5a1.749 1.749 0 0 1 -1.75-1.75v-6.437a1.75 1.75 0 0 1 3.5 0v6.437a1.75 1.75 0 0 1 -1.75 1.75z" fill="#ff3e63"/><path d="m103.81 12.5v48.5h-79.62v-48.5a6 6 0 0 1 6-6h67.62a6 6 0 0 1 6 6z" fill="#ff3e63"/><g fill="#eaeaf0"><path d="m51 37.563a1.751 1.751 0 0 1 -1.75-1.75v-6a1.75 1.75 0 0 1 3.5 0v6a1.751 1.751 0 0 1 -1.75 1.75z"/><path d="m63 37.563a1.751 1.751 0 0 1 -1.75-1.75v-6a1.75 1.75 0 0 1 3.5 0v6a1.751 1.751 0 0 1 -1.75 1.75z"/><path d="m55.25 6.5h3.5v109h-3.5z"/><path d="m51 92.063a1.751 1.751 0 0 1 -1.75-1.75v-6a1.75 1.75 0 1 1 3.5 0v6a1.751 1.751 0 0 1 -1.75 1.75z"/><path d="m63 92.063a1.751 1.751 0 0 1 -1.75-1.75v-6a1.75 1.75 0 1 1 3.5 0v6a1.751 1.751 0 0 1 -1.75 1.75z"/><path d="m76 24.192h16v24.474h-16z"/></g><path d="m86.917 31h-5.834a1.75 1.75 0 0 1 0-3.5h5.834a1.75 1.75 0 0 1 0 3.5z" fill="#ff3e63"/></g></svg>