<svg id="Capa_1" enable-background="new 0 0 497 497" height="512" viewBox="0 0 497 497" width="512" xmlns="http://www.w3.org/2000/svg"><g><g><path d="m220.741 430.043c-3.629-6.598-13.11-6.598-16.739 0-5.329 9.688-10.996 17.457-20.417 23.245-11.341 6.967-15.389 21.36-8.255 32.596 4.375 6.891 10.476 10.404 18.638 10.404l5.801.713h30.996c8.163 0 15.758-4.175 20.133-11.066 7.134-11.236 3.69-26.137-7.651-33.104-8.13-4.994-15.02-11.739-20.18-19.72 0 0-.982-.63-1.269-1.1-.501-.819-.593-1.125-1.057-1.968z" fill="#ff8086"/><path d="m223.066 433.111c-.03.03-.048.069-.068.109-2.66 4.84-5.93 9.3-9.71 13.27-3.79 3.97-8.08 7.45-12.79 10.34-7.34 4.51-11.37 12.34-11.37 20.35 0 4.36 1.2 8.79 3.72 12.75 1.82 2.86 4.19 5.26 6.92 7.07h-5.79c-4.08 0-8.02-1.04-11.49-2.95-3.46-1.9-6.45-4.67-8.64-8.12-2.52-3.96-3.72-8.39-3.72-12.75 0-8.01 4.03-15.84 11.37-20.35 4.71-2.89 9-6.37 12.79-10.34 3.78-3.97 7.05-8.43 9.71-13.27 3.63-6.6 13.11-6.6 16.74 0 .73 1.33 1.498 2.621 2.328 3.891z" fill="#e5646e"/></g><g><path d="m354.741 430.043c-3.629-6.598-13.11-6.598-16.739 0-5.329 9.688-10.996 17.457-20.417 23.245-11.341 6.967-15.389 21.36-8.255 32.596 4.375 6.891 10.476 10.404 18.638 10.404l5.801.713h30.996c8.163 0 15.758-4.175 20.133-11.066 7.134-11.236 3.69-26.137-7.651-33.104-8.13-4.994-15.02-11.739-20.18-19.72 0 0-.982-.63-1.269-1.1-.501-.819-.594-1.125-1.057-1.968z" fill="#ff8086"/><path d="m357.066 433.111c-.03.03-.048.069-.068.109-2.66 4.84-5.93 9.3-9.71 13.27-3.79 3.97-8.08 7.45-12.79 10.34-7.34 4.51-11.37 12.34-11.37 20.35 0 4.36 1.2 8.79 3.72 12.75 1.82 2.86 4.19 5.26 6.92 7.07h-5.79c-4.08 0-8.02-1.04-11.49-2.95-3.46-1.9-6.45-4.67-8.64-8.12-2.52-3.96-3.72-8.39-3.72-12.75 0-8.01 4.03-15.84 11.37-20.35 4.71-2.89 9-6.37 12.79-10.34 3.78-3.97 7.05-8.43 9.71-13.27 3.63-6.6 13.11-6.6 16.74 0 .729 1.33 1.498 2.621 2.328 3.891z" fill="#e5646e"/></g><g><path d="m458.653 120.878c-2.976 7.01-8.708 12.485-15.847 15.135l-32.238 11.966-18.171 4.455-84.557-83.7 18.638-49.404c2.65-7.14 6.522-12.599 13.532-15.574 2.686-1.14 8.138-3.626 8.138-3.626 14.097-1.379 27.668 8.364 30.006 23.282 4.788 30.552 28.754 54.517 59.305 59.305 17.802 2.79 28.235 21.574 21.194 38.161z" fill="#ff8086"/><path d="m395.783 133.194c-1.107-1.107-1.819-2.534-2.106-4.073-2.814-15.104-10.079-29.351-21.329-40.601-11.288-11.289-25.448-18.66-40.836-21.441-1.488-.269-2.852-1.007-3.921-2.076-1.374-1.374-1.828-3.421-1.163-5.247l21.72-59.626c-2.72.27-5.47.95-8.15 2.09-7.01 2.97-12.49 8.71-15.14 15.85l-18.09 48.74 42.221 53.626 45.079 33.664 16.499-6.122z" fill="#e5646e"/><path d="m264.308 54.819c-14.202 2.884-25.675 13.101-32.255 26.013l-104.376 212.491 43.484 43.484 210.424-107.239c12.912-6.58 22.116-18.691 25-32.892 3.173-15.625-1.698-31.799-12.972-43.073l-86.345-86.345c-6.405-6.405-14.392-10.743-22.961-12.714 0 0-2.364-.072-3.361-.236-5.607-.918-10.91-.652-16.638.511z" fill="#e8e8e8"/><path d="m284.588 54.61c-1.46.15-2.93.38-4.39.68-14.2 2.88-26.31 12.09-32.89 25l-113.89 218.77-9.35-9.35 107.24-210.42c6.58-12.91 18.69-22.12 32.89-25 6.84-1.39 13.79-1.24 20.39.32z" fill="#d8d8d8"/><path d="m376.187 164.884c-5.288 14.352-15.254 26.505-28.293 34.5l-194.745 119.411-11.073-11.073 119.412-194.745c7.995-13.039 20.148-23.005 34.5-28.293 22.86-8.422 48.53-2.784 65.756 14.443 17.227 17.227 22.865 42.897 14.443 65.757z" fill="#f8f7f7"/><path d="m184.288 338.1-49.88 33.11-23.675-19.838-21.075-24.912 33.586-48.109c2.1-3.15 6.56-3.6 9.23-.92l5.165 3.868 47.579 47.571c2.67 2.68 2.23 7.14-.93 9.23z" fill="#ff8086"/><path d="m134.408 371.21-15.318 10.173-5.916 2.398c-3.96 2.63-9.23 2.11-12.59-1.26l-22.404-22.425c-3.36-3.36-3.89-8.62-1.26-12.58l12.738-21.056z" fill="#f8f7f7"/><path d="m119.088 381.38-5.94 3.95c-3.96 2.63-9.23 2.11-12.59-1.26l-23.76-23.76c-3.36-3.36-3.89-8.62-1.26-12.58l14.12-21.27 8.182 2.827 2.638 7.993-8.813 13.275c-.79 1.19-.632 2.771.378 3.781z" fill="#e8e8e8"/><path d="m137.638 281.3-37.16 55.98-10.82-10.82 33.11-49.88c2.1-3.15 6.56-3.6 9.23-.92z" fill="#e5646e"/></g><g><path d="m86.741 430.043c-3.629-6.598-13.11-6.598-16.739 0-5.329 9.688-10.996 17.457-20.417 23.245-11.341 6.967-15.389 21.36-8.255 32.596 4.375 6.891 10.476 10.404 18.638 10.404l5.8.712h30.996c8.163 0 15.758-4.175 20.133-11.066 7.134-11.236 3.69-26.137-7.651-33.104-8.13-4.994-15.02-11.739-20.18-19.72 0 0-.982-.63-1.269-1.1-.5-.818-.592-1.124-1.056-1.967z" fill="#ff8086"/><path d="m89.067 433.111c-.03.03-.048.069-.068.109-2.66 4.84-5.93 9.3-9.71 13.27-3.79 3.97-8.08 7.45-12.79 10.34-7.34 4.51-11.37 12.34-11.37 20.35 0 4.36 1.2 8.79 3.72 12.75 1.82 2.86 4.19 5.26 6.92 7.07h-5.79c-4.08 0-8.02-1.04-11.49-2.95-3.46-1.9-6.45-4.67-8.64-8.12-2.52-3.96-3.72-8.39-3.72-12.75 0-8.01 4.03-15.84 11.37-20.35 4.71-2.89 9-6.37 12.79-10.34 3.78-3.97 7.05-8.43 9.71-13.27 3.63-6.6 13.11-6.6 16.74 0 .729 1.33 1.498 2.621 2.328 3.891z" fill="#e5646e"/></g></g></svg>